<?xml version="1.0" encoding="UTF-8" standalone="no"?>
<svg
   width="24"
   height="12.631579"
   viewBox="0 0 19 7.8947371"
   version="1.1"
   id="svg78"
   sodipodi:docname="e74cc0cfff91fc0fc99cb2032ad5bb99.svg"
   xmlns:inkscape="http://www.inkscape.org/namespaces/inkscape"
   xmlns:sodipodi="http://sodipodi.sourceforge.net/DTD/sodipodi-0.dtd"
   xmlns="http://www.w3.org/2000/svg"
   xmlns:svg="http://www.w3.org/2000/svg">
  <defs
     id="defs82" />
  <sodipodi:namedview
     id="namedview80"
     pagecolor="#ffffff"
     bordercolor="#666666"
     borderopacity="1.0"
     inkscape:pageshadow="2"
     inkscape:pageopacity="0.0"
     inkscape:pagecheckerboard="0" />
  <rect
     width="19"
     height="10"
     fill="#ffffff"
     id="rect2"
     x="0"
     y="-1.3333334" />
  <rect
     y="-1.3333334"
     width="19"
     height="0.76999998"
     fill="#b22234"
     id="rect4"
     x="0" />
  <rect
     y="0.20666663"
     width="19"
     height="0.76999998"
     fill="#b22234"
     id="rect6"
     x="0" />
  <rect
     y="1.7466666"
     width="19"
     height="0.76999998"
     fill="#b22234"
     id="rect8"
     x="0" />
  <rect
     y="3.2866666"
     width="19"
     height="0.76999998"
     fill="#b22234"
     id="rect10"
     x="0" />
  <rect
     y="4.8266664"
     width="19"
     height="0.76999998"
     fill="#b22234"
     id="rect12"
     x="0" />
  <rect
     y="6.3666663"
     width="19"
     height="0.76999998"
     fill="#b22234"
     id="rect14"
     x="0" />
  <rect
     y="7.9066663"
     width="19"
     height="0.75999999"
     fill="#b22234"
     id="rect16"
     x="0" />
  <rect
     width="7.5999999"
     height="5.3899999"
     fill="#3c3b6e"
     id="rect18"
     x="0"
     y="-1.3333334" />
  <g
     fill="#ffffff"
     id="g76"
     transform="translate(0,-1.3333333)">
    <circle
       cx="0.69999999"
       cy="0.60000002"
       r="0.12"
       id="circle20" />
    <circle
       cx="1.7"
       cy="0.60000002"
       r="0.12"
       id="circle22" />
    <circle
       cx="2.7"
       cy="0.60000002"
       r="0.12"
       id="circle24" />
    <circle
       cx="3.7"
       cy="0.60000002"
       r="0.12"
       id="circle26" />
    <circle
       cx="4.6999998"
       cy="0.60000002"
       r="0.12"
       id="circle28" />
    <circle
       cx="5.6999998"
       cy="0.60000002"
       r="0.12"
       id="circle30" />
    <circle
       cx="1.2"
       cy="1.4"
       r="0.12"
       id="circle32" />
    <circle
       cx="2.2"
       cy="1.4"
       r="0.12"
       id="circle34" />
    <circle
       cx="3.2"
       cy="1.4"
       r="0.12"
       id="circle36" />
    <circle
       cx="4.1999998"
       cy="1.4"
       r="0.12"
       id="circle38" />
    <circle
       cx="5.1999998"
       cy="1.4"
       r="0.12"
       id="circle40" />
    <circle
       cx="0.69999999"
       cy="2.2"
       r="0.12"
       id="circle42" />
    <circle
       cx="1.7"
       cy="2.2"
       r="0.12"
       id="circle44" />
    <circle
       cx="2.7"
       cy="2.2"
       r="0.12"
       id="circle46" />
    <circle
       cx="3.7"
       cy="2.2"
       r="0.12"
       id="circle48" />
    <circle
       cx="4.6999998"
       cy="2.2"
       r="0.12"
       id="circle50" />
    <circle
       cx="5.6999998"
       cy="2.2"
       r="0.12"
       id="circle52" />
    <circle
       cx="1.2"
       cy="3"
       r="0.12"
       id="circle54" />
    <circle
       cx="2.2"
       cy="3"
       r="0.12"
       id="circle56" />
    <circle
       cx="3.2"
       cy="3"
       r="0.12"
       id="circle58" />
    <circle
       cx="4.1999998"
       cy="3"
       r="0.12"
       id="circle60" />
    <circle
       cx="5.1999998"
       cy="3"
       r="0.12"
       id="circle62" />
    <circle
       cx="0.69999999"
       cy="3.8"
       r="0.12"
       id="circle64" />
    <circle
       cx="1.7"
       cy="3.8"
       r="0.12"
       id="circle66" />
    <circle
       cx="2.7"
       cy="3.8"
       r="0.12"
       id="circle68" />
    <circle
       cx="3.7"
       cy="3.8"
       r="0.12"
       id="circle70" />
    <circle
       cx="4.6999998"
       cy="3.8"
       r="0.12"
       id="circle72" />
    <circle
       cx="5.6999998"
       cy="3.8"
       r="0.12"
       id="circle74" />
  </g>
</svg>
